# xmcd
#
# Track frame offsets: 
#        150
#        25485
#        59252
#        75930
#        107475
#        135792
#        157257
#        171520
#        184570
#        211300
#        239850
#
# Disc length: 3563 seconds
#
# Revision: 0
# Processed by: cddbd v1.5.2PL0 Copyright (c) Steve Scherf et al.
# Submitted via: ExactAudioCopy v0.95a5
#
DISCID=900de90b
DTITLE=Cooper Terry ( and The Nite Life ) - Stormy Desert Blues
DYEAR=1991
DGENRE=Blues
TTITLE0=Stormy Desert
TTITLE1=And I Cry
TTITLE2=California Shuffle
TTITLE3=Down Home Country Girl
TTITLE4=Amerika
TTITLE5=Nite Life
TTITLE6=Take A Ride With Me
TTITLE7=Shockin' And Jivin'
TTITLE8=White House Blues
TTITLE9=Amerika ( mix version )
TTITLE10=White House Blues ( mix version )
EXTD=
EXTT0=
EXTT1=
EXTT2=
EXTT3=
EXTT4=
EXTT5=
EXTT6=
EXTT7=
EXTT8=
EXTT9=
EXTT10=
PLAYORDER=
